<svg width="177" height="64" viewBox="0 0 177 64" fill="none" xmlns="http://www.w3.org/2000/svg">
<g filter="url(#filter0_d_297095_2083)">
<rect x="4" width="169" height="56" rx="4" fill="#4D5AE5" shape-rendering="crispEdges"/>
<path d="M46.2266 27V27.625C46.2266 28.4844 46.1146 29.2552 45.8906 29.9375C45.6667 30.6198 45.3464 31.2005 44.9297 31.6797C44.5182 32.1589 44.0234 32.526 43.4453 32.7812C42.8672 33.0312 42.2266 33.1562 41.5234 33.1562C40.8255 33.1562 40.1875 33.0312 39.6094 32.7812C39.0365 32.526 38.5391 32.1589 38.1172 31.6797C37.6953 31.2005 37.3672 30.6198 37.1328 29.9375C36.9036 29.2552 36.7891 28.4844 36.7891 27.625V27C36.7891 26.1406 36.9036 25.3724 37.1328 24.6953C37.362 24.013 37.6849 23.4323 38.1016 22.9531C38.5234 22.4688 39.0208 22.1016 39.5938 21.8516C40.1719 21.5964 40.8099 21.4688 41.5078 21.4688C42.2109 21.4688 42.8516 21.5964 43.4297 21.8516C44.0078 22.1016 44.5052 22.4688 44.9219 22.9531C45.3385 23.4323 45.6589 24.013 45.8828 24.6953C46.112 25.3724 46.2266 26.1406 46.2266 27ZM44.2656 27.625V26.9844C44.2656 26.349 44.2031 25.7891 44.0781 25.3047C43.9583 24.8151 43.7786 24.4062 43.5391 24.0781C43.3047 23.7448 43.0156 23.4948 42.6719 23.3281C42.3281 23.1562 41.9401 23.0703 41.5078 23.0703C41.0755 23.0703 40.6901 23.1562 40.3516 23.3281C40.013 23.4948 39.724 23.7448 39.4844 24.0781C39.25 24.4062 39.0703 24.8151 38.9453 25.3047C38.8203 25.7891 38.7578 26.349 38.7578 26.9844V27.625C38.7578 28.2604 38.8203 28.8229 38.9453 29.3125C39.0703 29.8021 39.2526 30.2161 39.4922 30.5547C39.737 30.888 40.0286 31.1406 40.3672 31.3125C40.7057 31.4792 41.0911 31.5625 41.5234 31.5625C41.9609 31.5625 42.349 31.4792 42.6875 31.3125C43.026 31.1406 43.3125 30.888 43.5469 30.5547C43.7812 30.2161 43.9583 29.8021 44.0781 29.3125C44.2031 28.8229 44.2656 28.2604 44.2656 27.625ZM50.5306 26.1562V33H48.6478V24.5469H50.4447L50.5306 26.1562ZM53.1166 24.4922L53.1009 26.2422C52.9864 26.2214 52.8614 26.2057 52.7259 26.1953C52.5957 26.1849 52.4655 26.1797 52.3353 26.1797C52.0124 26.1797 51.7285 26.2266 51.4838 26.3203C51.239 26.4089 51.0332 26.5391 50.8666 26.7109C50.7051 26.8776 50.5801 27.0807 50.4916 27.3203C50.403 27.5599 50.3509 27.8281 50.3353 28.125L49.9056 28.1562C49.9056 27.625 49.9577 27.1328 50.0619 26.6797C50.166 26.2266 50.3223 25.8281 50.5306 25.4844C50.7442 25.1406 51.0098 24.8724 51.3275 24.6797C51.6504 24.487 52.0228 24.3906 52.4447 24.3906C52.5593 24.3906 52.6817 24.401 52.8119 24.4219C52.9473 24.4427 53.0489 24.4661 53.1166 24.4922ZM59.9363 31.25V21H61.8269V33H60.1159L59.9363 31.25ZM54.4363 28.8672V28.7031C54.4363 28.0625 54.5118 27.4792 54.6628 26.9531C54.8139 26.4219 55.0326 25.9661 55.3191 25.5859C55.6055 25.2005 55.9545 24.9062 56.3659 24.7031C56.7774 24.4948 57.2409 24.3906 57.7566 24.3906C58.267 24.3906 58.7149 24.4896 59.1003 24.6875C59.4857 24.8854 59.8139 25.1693 60.0847 25.5391C60.3555 25.9036 60.5717 26.3411 60.7331 26.8516C60.8946 27.3568 61.0092 27.9193 61.0769 28.5391V29.0625C61.0092 29.6667 60.8946 30.2188 60.7331 30.7188C60.5717 31.2188 60.3555 31.651 60.0847 32.0156C59.8139 32.3802 59.4831 32.6615 59.0925 32.8594C58.7071 33.0573 58.2566 33.1562 57.7409 33.1562C57.2305 33.1562 56.7696 33.0495 56.3581 32.8359C55.9519 32.6224 55.6055 32.3229 55.3191 31.9375C55.0326 31.5521 54.8139 31.099 54.6628 30.5781C54.5118 30.0521 54.4363 29.4818 54.4363 28.8672ZM56.3191 28.7031V28.8672C56.3191 29.2526 56.3529 29.612 56.4206 29.9453C56.4935 30.2786 56.6055 30.5729 56.7566 30.8281C56.9076 31.0781 57.1029 31.276 57.3425 31.4219C57.5873 31.5625 57.879 31.6328 58.2175 31.6328C58.6446 31.6328 58.9961 31.5391 59.2722 31.3516C59.5482 31.1641 59.7644 30.9115 59.9206 30.5938C60.0821 30.2708 60.1915 29.9115 60.2488 29.5156V28.1016C60.2175 27.7943 60.1524 27.5078 60.0534 27.2422C59.9597 26.9766 59.8321 26.7448 59.6706 26.5469C59.5092 26.3438 59.3086 26.1875 59.0691 26.0781C58.8347 25.9635 58.556 25.9062 58.2331 25.9062C57.8894 25.9062 57.5977 25.9792 57.3581 26.125C57.1185 26.2708 56.9206 26.4714 56.7644 26.7266C56.6133 26.9818 56.5014 27.2786 56.4284 27.6172C56.3555 27.9557 56.3191 28.3177 56.3191 28.7031ZM68.1622 33.1562C67.5372 33.1562 66.9721 33.0547 66.4669 32.8516C65.9669 32.6432 65.5398 32.3542 65.1856 31.9844C64.8367 31.6146 64.5684 31.1797 64.3809 30.6797C64.1934 30.1797 64.0997 29.6406 64.0997 29.0625V28.75C64.0997 28.0885 64.196 27.4896 64.3888 26.9531C64.5815 26.4167 64.8497 25.9583 65.1934 25.5781C65.5372 25.1927 65.9434 24.8984 66.4122 24.6953C66.8809 24.4922 67.3888 24.3906 67.9356 24.3906C68.5398 24.3906 69.0684 24.4922 69.5216 24.6953C69.9747 24.8984 70.3497 25.1849 70.6466 25.5547C70.9486 25.9193 71.1726 26.3542 71.3184 26.8594C71.4695 27.3646 71.545 27.9219 71.545 28.5312V29.3359H65.0138V27.9844H69.6856V27.8359C69.6752 27.4974 69.6075 27.1797 69.4825 26.8828C69.3627 26.5859 69.1778 26.3464 68.9278 26.1641C68.6778 25.9818 68.3445 25.8906 67.9278 25.8906C67.6153 25.8906 67.3367 25.9583 67.0919 26.0938C66.8523 26.224 66.6518 26.4141 66.4903 26.6641C66.3289 26.9141 66.2039 27.2161 66.1153 27.5703C66.032 27.9193 65.9903 28.3125 65.9903 28.75V29.0625C65.9903 29.4323 66.0398 29.776 66.1388 30.0938C66.2429 30.4062 66.394 30.6797 66.5919 30.9141C66.7898 31.1484 67.0294 31.3333 67.3106 31.4688C67.5919 31.599 67.9122 31.6641 68.2716 31.6641C68.7247 31.6641 69.1283 31.5729 69.4825 31.3906C69.8367 31.2083 70.144 30.9505 70.4044 30.6172L71.3966 31.5781C71.2143 31.8438 70.9773 32.099 70.6856 32.3438C70.394 32.5833 70.0372 32.7786 69.6153 32.9297C69.1986 33.0807 68.7143 33.1562 68.1622 33.1562ZM75.5444 26.1562V33H73.6616V24.5469H75.4584L75.5444 26.1562ZM78.1303 24.4922L78.1147 26.2422C78.0001 26.2214 77.8751 26.2057 77.7397 26.1953C77.6095 26.1849 77.4793 26.1797 77.3491 26.1797C77.0261 26.1797 76.7423 26.2266 76.4975 26.3203C76.2527 26.4089 76.047 26.5391 75.8803 26.7109C75.7189 26.8776 75.5939 27.0807 75.5053 27.3203C75.4168 27.5599 75.3647 27.8281 75.3491 28.125L74.9194 28.1562C74.9194 27.625 74.9715 27.1328 75.0756 26.6797C75.1798 26.2266 75.336 25.8281 75.5444 25.4844C75.7579 25.1406 76.0235 24.8724 76.3413 24.6797C76.6642 24.487 77.0366 24.3906 77.4584 24.3906C77.573 24.3906 77.6954 24.401 77.8256 24.4219C77.961 24.4427 78.0626 24.4661 78.1303 24.4922ZM90.7463 30.0703C90.7463 29.8359 90.7098 29.6276 90.6369 29.4453C90.5692 29.263 90.4468 29.0964 90.2697 28.9453C90.0926 28.7943 89.8426 28.6484 89.5197 28.5078C89.202 28.362 88.7957 28.2135 88.3009 28.0625C87.7593 27.8958 87.2593 27.7109 86.8009 27.5078C86.3478 27.2995 85.952 27.0599 85.6134 26.7891C85.2749 26.513 85.0119 26.1979 84.8244 25.8438C84.6369 25.4844 84.5431 25.0703 84.5431 24.6016C84.5431 24.138 84.6395 23.7161 84.8322 23.3359C85.0301 22.9557 85.3088 22.6276 85.6681 22.3516C86.0327 22.0703 86.4624 21.8542 86.9572 21.7031C87.452 21.5469 87.9989 21.4688 88.5978 21.4688C89.4416 21.4688 90.1681 21.625 90.7775 21.9375C91.3921 22.25 91.8634 22.6693 92.1916 23.1953C92.5249 23.7214 92.6916 24.3021 92.6916 24.9375H90.7463C90.7463 24.5625 90.6655 24.2318 90.5041 23.9453C90.3478 23.6536 90.1082 23.4245 89.7853 23.2578C89.4676 23.0911 89.064 23.0078 88.5744 23.0078C88.1108 23.0078 87.7254 23.0781 87.4181 23.2188C87.1108 23.3594 86.8817 23.5495 86.7306 23.7891C86.5796 24.0286 86.5041 24.2995 86.5041 24.6016C86.5041 24.8151 86.5535 25.0104 86.6525 25.1875C86.7515 25.3594 86.9025 25.5208 87.1056 25.6719C87.3088 25.8177 87.564 25.9557 87.8713 26.0859C88.1785 26.2161 88.5405 26.3411 88.9572 26.4609C89.5874 26.6484 90.1369 26.8568 90.6056 27.0859C91.0744 27.3099 91.465 27.5651 91.7775 27.8516C92.09 28.138 92.3244 28.4635 92.4806 28.8281C92.6369 29.1875 92.715 29.5964 92.715 30.0547C92.715 30.5339 92.6186 30.9661 92.4259 31.3516C92.2332 31.7318 91.9572 32.0573 91.5978 32.3281C91.2436 32.5938 90.8166 32.7995 90.3166 32.9453C89.8218 33.0859 89.2697 33.1562 88.6603 33.1562C88.1134 33.1562 87.5744 33.0833 87.0431 32.9375C86.5171 32.7917 86.0379 32.5703 85.6056 32.2734C85.1733 31.9714 84.8296 31.5964 84.5744 31.1484C84.3192 30.6953 84.1916 30.1667 84.1916 29.5625H86.1525C86.1525 29.9323 86.215 30.2474 86.34 30.5078C86.4702 30.7682 86.6499 30.9818 86.8791 31.1484C87.1082 31.3099 87.3739 31.4297 87.6759 31.5078C87.9832 31.5859 88.3114 31.625 88.6603 31.625C89.1186 31.625 89.5015 31.5599 89.8088 31.4297C90.1213 31.2995 90.3556 31.1172 90.5119 30.8828C90.6681 30.6484 90.7463 30.3776 90.7463 30.0703ZM98.6284 33.1562C98.0034 33.1562 97.4383 33.0547 96.9331 32.8516C96.4331 32.6432 96.006 32.3542 95.6519 31.9844C95.3029 31.6146 95.0347 31.1797 94.8472 30.6797C94.6597 30.1797 94.5659 29.6406 94.5659 29.0625V28.75C94.5659 28.0885 94.6623 27.4896 94.855 26.9531C95.0477 26.4167 95.3159 25.9583 95.6597 25.5781C96.0034 25.1927 96.4097 24.8984 96.8784 24.6953C97.3472 24.4922 97.855 24.3906 98.4019 24.3906C99.006 24.3906 99.5347 24.4922 99.9878 24.6953C100.441 24.8984 100.816 25.1849 101.113 25.5547C101.415 25.9193 101.639 26.3542 101.785 26.8594C101.936 27.3646 102.011 27.9219 102.011 28.5312V29.3359H95.48V27.9844H100.152V27.8359C100.141 27.4974 100.074 27.1797 99.9487 26.8828C99.829 26.5859 99.6441 26.3464 99.3941 26.1641C99.1441 25.9818 98.8107 25.8906 98.3941 25.8906C98.0816 25.8906 97.8029 25.9583 97.5581 26.0938C97.3185 26.224 97.118 26.4141 96.9566 26.6641C96.7951 26.9141 96.6701 27.2161 96.5816 27.5703C96.4982 27.9193 96.4566 28.3125 96.4566 28.75V29.0625C96.4566 29.4323 96.506 29.776 96.605 30.0938C96.7092 30.4062 96.8602 30.6797 97.0581 30.9141C97.256 31.1484 97.4956 31.3333 97.7769 31.4688C98.0581 31.599 98.3784 31.6641 98.7378 31.6641C99.1909 31.6641 99.5946 31.5729 99.9487 31.3906C100.303 31.2083 100.61 30.9505 100.871 30.6172L101.863 31.5781C101.681 31.8438 101.444 32.099 101.152 32.3438C100.86 32.5833 100.503 32.7786 100.082 32.9297C99.6649 33.0807 99.1805 33.1562 98.6284 33.1562ZM106.011 26.1562V33H104.128V24.5469H105.925L106.011 26.1562ZM108.597 24.4922L108.581 26.2422C108.466 26.2214 108.341 26.2057 108.206 26.1953C108.076 26.1849 107.946 26.1797 107.815 26.1797C107.492 26.1797 107.209 26.2266 106.964 26.3203C106.719 26.4089 106.513 26.5391 106.347 26.7109C106.185 26.8776 106.06 27.0807 105.972 27.3203C105.883 27.5599 105.831 27.8281 105.815 28.125L105.386 28.1562C105.386 27.625 105.438 27.1328 105.542 26.6797C105.646 26.2266 105.802 25.8281 106.011 25.4844C106.224 25.1406 106.49 24.8724 106.808 24.6797C107.13 24.487 107.503 24.3906 107.925 24.3906C108.039 24.3906 108.162 24.401 108.292 24.4219C108.427 24.4427 108.529 24.4661 108.597 24.4922ZM113.307 31.5078L115.377 24.5469H117.33L114.393 33H113.174L113.307 31.5078ZM111.721 24.5469L113.83 31.5391L113.932 33H112.713L109.76 24.5469H111.721ZM121.15 24.5469V33H119.259V24.5469H121.15ZM119.134 22.3281C119.134 22.0417 119.228 21.8047 119.416 21.6172C119.608 21.4245 119.874 21.3281 120.213 21.3281C120.546 21.3281 120.809 21.4245 121.002 21.6172C121.194 21.8047 121.291 22.0417 121.291 22.3281C121.291 22.6094 121.194 22.8438 121.002 23.0312C120.809 23.2188 120.546 23.3125 120.213 23.3125C119.874 23.3125 119.608 23.2188 119.416 23.0312C119.228 22.8438 119.134 22.6094 119.134 22.3281ZM127.306 31.6562C127.613 31.6562 127.889 31.5964 128.134 31.4766C128.384 31.3516 128.584 31.1797 128.735 30.9609C128.892 30.7422 128.978 30.4896 128.993 30.2031H130.767C130.756 30.75 130.595 31.2474 130.282 31.6953C129.97 32.1432 129.556 32.5 129.04 32.7656C128.524 33.026 127.954 33.1562 127.329 33.1562C126.683 33.1562 126.121 33.0469 125.642 32.8281C125.162 32.6042 124.764 32.2969 124.446 31.9062C124.129 31.5156 123.889 31.0651 123.728 30.5547C123.571 30.0443 123.493 29.4974 123.493 28.9141V28.6406C123.493 28.0573 123.571 27.5104 123.728 27C123.889 26.4844 124.129 26.0312 124.446 25.6406C124.764 25.25 125.162 24.9453 125.642 24.7266C126.121 24.5026 126.681 24.3906 127.321 24.3906C127.998 24.3906 128.592 24.526 129.103 24.7969C129.613 25.0625 130.014 25.4349 130.306 25.9141C130.603 26.388 130.756 26.9401 130.767 27.5703H128.993C128.978 27.2578 128.899 26.9766 128.759 26.7266C128.623 26.4714 128.431 26.2682 128.181 26.1172C127.936 25.9661 127.642 25.8906 127.298 25.8906C126.918 25.8906 126.603 25.9688 126.353 26.125C126.103 26.276 125.907 26.4844 125.767 26.75C125.626 27.0104 125.524 27.3047 125.462 27.6328C125.405 27.9557 125.376 28.2917 125.376 28.6406V28.9141C125.376 29.263 125.405 29.6016 125.462 29.9297C125.519 30.2578 125.618 30.5521 125.759 30.8125C125.905 31.0677 126.103 31.2734 126.353 31.4297C126.603 31.5807 126.92 31.6562 127.306 31.6562ZM136.578 33.1562C135.953 33.1562 135.388 33.0547 134.883 32.8516C134.383 32.6432 133.956 32.3542 133.602 31.9844C133.253 31.6146 132.985 31.1797 132.797 30.6797C132.61 30.1797 132.516 29.6406 132.516 29.0625V28.75C132.516 28.0885 132.612 27.4896 132.805 26.9531C132.998 26.4167 133.266 25.9583 133.61 25.5781C133.953 25.1927 134.36 24.8984 134.828 24.6953C135.297 24.4922 135.805 24.3906 136.352 24.3906C136.956 24.3906 137.485 24.4922 137.938 24.6953C138.391 24.8984 138.766 25.1849 139.063 25.5547C139.365 25.9193 139.589 26.3542 139.735 26.8594C139.886 27.3646 139.961 27.9219 139.961 28.5312V29.3359H133.43V27.9844H138.102V27.8359C138.091 27.4974 138.024 27.1797 137.899 26.8828C137.779 26.5859 137.594 26.3464 137.344 26.1641C137.094 25.9818 136.761 25.8906 136.344 25.8906C136.032 25.8906 135.753 25.9583 135.508 26.0938C135.269 26.224 135.068 26.4141 134.907 26.6641C134.745 26.9141 134.62 27.2161 134.532 27.5703C134.448 27.9193 134.407 28.3125 134.407 28.75V29.0625C134.407 29.4323 134.456 29.776 134.555 30.0938C134.659 30.4062 134.81 30.6797 135.008 30.9141C135.206 31.1484 135.446 31.3333 135.727 31.4688C136.008 31.599 136.328 31.6641 136.688 31.6641C137.141 31.6641 137.545 31.5729 137.899 31.3906C138.253 31.2083 138.56 30.9505 138.821 30.6172L139.813 31.5781C139.631 31.8438 139.394 32.099 139.102 32.3438C138.81 32.5833 138.453 32.7786 138.032 32.9297C137.615 33.0807 137.131 33.1562 136.578 33.1562Z" fill="white"/>
</g>
<defs>
<filter id="filter0_d_297095_2083" x="0" y="0" width="177" height="64" filterUnits="userSpaceOnUse" color-interpolation-filters="sRGB">
<feFlood flood-opacity="0" result="BackgroundImageFix"/>
<feColorMatrix in="SourceAlpha" type="matrix" values="0 0 0 0 0 0 0 0 0 0 0 0 0 0 0 0 0 0 127 0" result="hardAlpha"/>
<feOffset dy="4"/>
<feGaussianBlur stdDeviation="2"/>
<feComposite in2="hardAlpha" operator="out"/>
<feColorMatrix type="matrix" values="0 0 0 0 0 0 0 0 0 0 0 0 0 0 0 0 0 0 0.15 0"/>
<feBlend mode="normal" in2="BackgroundImageFix" result="effect1_dropShadow_297095_2083"/>
<feBlend mode="normal" in="SourceGraphic" in2="effect1_dropShadow_297095_2083" result="shape"/>
</filter>
</defs>
</svg>
